<svg width="19" height="19" viewBox="0 0 19 19" fill="none" xmlns="http://www.w3.org/2000/svg">
<path d="M9.5 17.4167C13.8723 17.4167 17.4167 13.8723 17.4167 9.50004C17.4167 5.12779 13.8723 1.58337 9.5 1.58337C5.12774 1.58337 1.58333 5.12779 1.58333 9.50004C1.58333 13.8723 5.12774 17.4167 9.5 17.4167Z" stroke="#1F1F1F" stroke-width="1.5" stroke-linecap="round" stroke-linejoin="round"/>
<path d="M7.19627 7.12496C7.3824 6.59587 7.74977 6.14971 8.23332 5.86553C8.71687 5.58134 9.2854 5.47746 9.83821 5.57228C10.391 5.6671 10.8924 5.9545 11.2536 6.38359C11.6148 6.81268 11.8125 7.35575 11.8117 7.91663C11.8117 9.49996 9.43669 10.2916 9.43669 10.2916V11.7997" stroke="#1F1F1F" stroke-width="1.5" stroke-linecap="round" stroke-linejoin="round"/>
<path d="M9.5 14.25H9.50875" stroke="#1F1F1F" stroke-width="1.5" stroke-linecap="round" stroke-linejoin="round"/>
</svg>
