<svg width="19" height="19" viewBox="0 0 19 19" fill="none" xmlns="http://www.w3.org/2000/svg">
<path d="M16.9733 8.74792L9.69792 16.0233C8.80663 16.9146 7.59777 17.4154 6.33729 17.4154C5.07681 17.4154 3.86796 16.9146 2.97667 16.0233C2.08538 15.132 1.58465 13.9232 1.58465 12.6627C1.58465 11.4022 2.08538 10.1934 2.97667 9.30209L10.2521 2.02667C10.8463 1.43248 11.6522 1.09866 12.4925 1.09866C13.3328 1.09866 14.1387 1.43248 14.7329 2.02667C15.3271 2.62087 15.6609 3.42677 15.6609 4.26709C15.6609 5.10741 15.3271 5.91331 14.7329 6.50751L7.44958 13.7829C7.15249 14.08 6.74954 14.2469 6.32938 14.2469C5.90922 14.2469 5.50627 14.08 5.20917 13.7829C4.91207 13.4858 4.74516 13.0829 4.74516 12.6627C4.74516 12.2426 4.91207 11.8396 5.20917 11.5425L11.9304 4.82917" stroke="#1F1F1F" stroke-width="1.5" stroke-linecap="round" stroke-linejoin="round"/>
</svg>
