<svg width="21" height="21" viewBox="0 0 21 21" fill="none" xmlns="http://www.w3.org/2000/svg">
<path fill-rule="evenodd" clip-rule="evenodd" d="M21 10.5C21 16.299 16.299 21 10.5 21C4.70101 21 0 16.299 0 10.5C0 4.70101 4.70101 0 10.5 0C16.299 0 21 4.70101 21 10.5ZM14.9571 6.04289C15.3476 6.43342 15.3476 7.06658 14.9571 7.45711L11.9142 10.5L14.9571 13.5429C15.3476 13.9334 15.3476 14.5666 14.9571 14.9571C14.5666 15.3476 13.9334 15.3476 13.5429 14.9571L10.5 11.9142L7.45711 14.9571C7.06658 15.3476 6.43342 15.3476 6.04289 14.9571C5.65237 14.5666 5.65237 13.9334 6.04289 13.5429L9.08579 10.5L6.04289 7.45711C5.65237 7.06658 5.65237 6.43342 6.04289 6.04289C6.43342 5.65237 7.06658 5.65237 7.45711 6.04289L10.5 9.08579L13.5429 6.04289C13.9334 5.65237 14.5666 5.65237 14.9571 6.04289Z" fill="current"/>
</svg>
