<svg width="19" height="19" viewBox="0 0 19 19" fill="none" xmlns="http://www.w3.org/2000/svg">
<path d="M9.5 11.875C10.8117 11.875 11.875 10.8117 11.875 9.5C11.875 8.18832 10.8117 7.125 9.5 7.125C8.18832 7.125 7.125 8.18832 7.125 9.5C7.125 10.8117 8.18832 11.875 9.5 11.875Z" stroke="#1F1F1F" stroke-width="1.5" stroke-linecap="round" stroke-linejoin="round"/>
<path d="M15.3583 11.875C15.253 12.1138 15.2215 12.3786 15.2681 12.6355C15.3146 12.8923 15.4371 13.1292 15.6196 13.3158L15.6671 13.3633C15.8143 13.5104 15.9311 13.685 16.0108 13.8772C16.0904 14.0694 16.1315 14.2755 16.1315 14.4835C16.1315 14.6916 16.0904 14.8976 16.0108 15.0899C15.9311 15.2821 15.8143 15.4567 15.6671 15.6037C15.52 15.751 15.3454 15.8677 15.1532 15.9474C14.961 16.0271 14.755 16.0681 14.5469 16.0681C14.3388 16.0681 14.1328 16.0271 13.9406 15.9474C13.7483 15.8677 13.5737 15.751 13.4267 15.6037L13.3792 15.5562C13.1926 15.3737 12.9556 15.2513 12.6988 15.2047C12.442 15.1582 12.1771 15.1896 11.9383 15.295C11.7042 15.3953 11.5045 15.562 11.3638 15.7744C11.2232 15.9868 11.1477 16.2357 11.1467 16.4904V16.625C11.1467 17.0449 10.9799 17.4476 10.6829 17.7446C10.386 18.0415 9.98326 18.2083 9.56333 18.2083C9.14341 18.2083 8.74068 18.0415 8.44375 17.7446C8.14682 17.4476 7.98 17.0449 7.98 16.625V16.5537C7.97387 16.2917 7.88905 16.0376 7.73657 15.8244C7.58409 15.6112 7.371 15.4488 7.125 15.3583C6.88622 15.2529 6.62135 15.2215 6.36454 15.2681C6.10772 15.3146 5.87075 15.4371 5.68417 15.6196L5.63667 15.6671C5.48962 15.8143 5.315 15.9311 5.12278 16.0108C4.93057 16.0904 4.72453 16.1314 4.51646 16.1314C4.30838 16.1314 4.10235 16.0904 3.91014 16.0108C3.71792 15.9311 3.5433 15.8143 3.39625 15.6671C3.24904 15.52 3.13225 15.3454 3.05257 15.1532C2.97289 14.961 2.93188 14.7549 2.93188 14.5469C2.93188 14.3388 2.97289 14.1328 3.05257 13.9405C3.13225 13.7483 3.24904 13.5737 3.39625 13.4267L3.44375 13.3792C3.62626 13.1926 3.74869 12.9556 3.79525 12.6988C3.84182 12.442 3.81038 12.1771 3.705 11.9383C3.60465 11.7042 3.43802 11.5045 3.22562 11.3638C3.01322 11.2232 2.76433 11.1477 2.50958 11.1467H2.375C1.95508 11.1467 1.55235 10.9798 1.25542 10.6829C0.958483 10.386 0.791668 9.98325 0.791668 9.56332C0.791668 9.1434 0.958483 8.74067 1.25542 8.44374C1.55235 8.1468 1.95508 7.97999 2.375 7.97999H2.44625C2.70829 7.97386 2.96242 7.88904 3.17561 7.73656C3.3888 7.58408 3.55119 7.37099 3.64167 7.12499C3.74705 6.88621 3.77849 6.62134 3.73192 6.36452C3.68536 6.10771 3.56293 5.87074 3.38042 5.68416L3.33292 5.63666C3.18571 5.48961 3.06892 5.31498 2.98924 5.12277C2.90956 4.93056 2.86855 4.72452 2.86855 4.51645C2.86855 4.30837 2.90956 4.10234 2.98924 3.91013C3.06892 3.71791 3.18571 3.54329 3.33292 3.39624C3.47997 3.24903 3.65459 3.13224 3.8468 3.05256C4.03902 2.97288 4.24505 2.93187 4.45313 2.93187C4.6612 2.93187 4.86723 2.97288 5.05945 3.05256C5.25166 3.13224 5.42629 3.24903 5.57333 3.39624L5.62083 3.44374C5.80741 3.62625 6.04439 3.74868 6.3012 3.79524C6.55801 3.84181 6.82289 3.81037 7.06167 3.70499H7.125C7.35915 3.60464 7.55885 3.438 7.69951 3.22561C7.84017 3.01321 7.91565 2.76432 7.91667 2.50957V2.37499C7.91667 1.95506 8.08348 1.55234 8.38042 1.2554C8.67735 0.958472 9.08007 0.791656 9.5 0.791656C9.91993 0.791656 10.3227 0.958472 10.6196 1.2554C10.9165 1.55234 11.0833 1.95506 11.0833 2.37499V2.44624C11.0844 2.70099 11.1598 2.94988 11.3005 3.16227C11.4412 3.37467 11.6409 3.5413 11.875 3.64166C12.1138 3.74704 12.3787 3.77847 12.6355 3.73191C12.8923 3.68534 13.1293 3.56291 13.3158 3.38041L13.3633 3.33291C13.5104 3.18569 13.685 3.06891 13.8772 2.98923C14.0694 2.90955 14.2755 2.86854 14.4835 2.86854C14.6916 2.86854 14.8977 2.90955 15.0899 2.98923C15.2821 3.06891 15.4567 3.18569 15.6037 3.33291C15.751 3.47996 15.8677 3.65458 15.9474 3.84679C16.0271 4.03901 16.0681 4.24504 16.0681 4.45311C16.0681 4.66119 16.0271 4.86722 15.9474 5.05944C15.8677 5.25165 15.751 5.42627 15.6037 5.57332L15.5563 5.62082C15.3737 5.8074 15.2513 6.04438 15.2047 6.30119C15.1582 6.558 15.1896 6.82288 15.295 7.06166V7.12499C15.3954 7.35914 15.562 7.55884 15.7744 7.6995C15.9868 7.84016 16.2357 7.91564 16.4904 7.91666H16.625C17.0449 7.91666 17.4477 8.08347 17.7446 8.3804C18.0415 8.67734 18.2083 9.08006 18.2083 9.49999C18.2083 9.91992 18.0415 10.3226 17.7446 10.6196C17.4477 10.9165 17.0449 11.0833 16.625 11.0833H16.5538C16.299 11.0843 16.0501 11.1598 15.8377 11.3005C15.6253 11.4411 15.4587 11.6408 15.3583 11.875V11.875Z" stroke="#1F1F1F" stroke-width="1.5" stroke-linecap="round" stroke-linejoin="round"/>
</svg>
