<svg width="14" height="14" viewBox="0 0 14 14" fill="none" xmlns="http://www.w3.org/2000/svg">
<path fill-rule="evenodd" clip-rule="evenodd" d="M14 7C14 10.866 10.866 14 7 14C3.13401 14 0 10.866 0 7C0 3.13401 3.13401 0 7 0C10.866 0 14 3.13401 14 7ZM10.2071 3.79293C10.5976 4.18345 10.5976 4.81662 10.2071 5.20714L8.41421 7.00004L10.2071 8.79293C10.5976 9.18345 10.5976 9.81662 10.2071 10.2071C9.81658 10.5977 9.18342 10.5977 8.79289 10.2071L7 8.41425L5.20711 10.2071C4.81658 10.5977 4.18342 10.5977 3.79289 10.2071C3.40237 9.81662 3.40237 9.18345 3.79289 8.79293L5.58579 7.00004L3.79289 5.20714C3.40237 4.81662 3.40237 4.18345 3.79289 3.79293C4.18342 3.40241 4.81658 3.40241 5.20711 3.79293L7 5.58582L8.79289 3.79293C9.18342 3.40241 9.81658 3.40241 10.2071 3.79293Z" fill="#DA7602"/>
</svg>
