<svg width="19" height="19" viewBox="0 0 19 19" fill="none" xmlns="http://www.w3.org/2000/svg">
<path d="M2.375 4.75H3.95833H16.625" stroke="#1F1F1F" stroke-width="1.5" stroke-linecap="round" stroke-linejoin="round"/>
<path d="M6.33333 4.75001V3.16668C6.33333 2.74675 6.50015 2.34402 6.79708 2.04709C7.09401 1.75016 7.49674 1.58334 7.91667 1.58334H11.0833C11.5033 1.58334 11.906 1.75016 12.2029 2.04709C12.4999 2.34402 12.6667 2.74675 12.6667 3.16668V4.75001M15.0417 4.75001V15.8333C15.0417 16.2533 14.8749 16.656 14.5779 16.9529C14.281 17.2499 13.8783 17.4167 13.4583 17.4167H5.54167C5.12174 17.4167 4.71901 17.2499 4.42208 16.9529C4.12515 16.656 3.95833 16.2533 3.95833 15.8333V4.75001H15.0417Z" stroke="#1F1F1F" stroke-width="1.5" stroke-linecap="round" stroke-linejoin="round"/>
<path d="M7.91667 8.70834V13.4583" stroke="#1F1F1F" stroke-width="1.5" stroke-linecap="round" stroke-linejoin="round"/>
<path d="M11.0833 8.70834V13.4583" stroke="#1F1F1F" stroke-width="1.5" stroke-linecap="round" stroke-linejoin="round"/>
</svg>
