<svg width="19" height="19" viewBox="0 0 19 19" fill="none" xmlns="http://www.w3.org/2000/svg">
<path d="M11.6375 4.98746C11.4924 5.13545 11.4112 5.33441 11.4112 5.54163C11.4112 5.74885 11.4924 5.94781 11.6375 6.0958L12.9042 7.36246C13.0522 7.50752 13.2511 7.58877 13.4583 7.58877C13.6656 7.58877 13.8645 7.50752 14.0125 7.36246L16.9971 4.37788C17.3952 5.25757 17.5157 6.23769 17.3426 7.18762C17.1695 8.13755 16.7111 9.01217 16.0283 9.69493C15.3455 10.3777 14.4709 10.8362 13.521 11.0092C12.5711 11.1823 11.5909 11.0618 10.7113 10.6637L5.24084 16.1341C4.92589 16.4491 4.49874 16.626 4.05334 16.626C3.60794 16.626 3.18078 16.4491 2.86584 16.1341C2.55089 15.8192 2.37396 15.392 2.37396 14.9466C2.37396 14.5012 2.55089 14.0741 2.86584 13.7591L8.33625 8.28871C7.93818 7.40902 7.81765 6.4289 7.99072 5.47897C8.1638 4.52904 8.62227 3.65442 9.30503 2.97166C9.98779 2.2889 10.8624 1.83043 11.8123 1.65735C12.7623 1.48427 13.7424 1.6048 14.6221 2.00288L11.6454 4.97955L11.6375 4.98746Z" stroke="#1F1F1F" stroke-width="1.5" stroke-linecap="round" stroke-linejoin="round"/>
</svg>
