<svg viewBox="0 0 185 48" fill="none" xmlns="http://www.w3.org/2000/svg">
<path d="M55.472 22.288L55.832 18.952H55.688L54.656 21.64L51.08 27.904H50.024L46.256 21.616L45.2 18.952H45.08L45.56 22.264V31H42.44V14.2H45.44L49.928 21.88L50.72 23.8H50.816L51.536 21.832L55.784 14.2H58.76V31H55.472V22.288ZM66.1713 25.744L66.6033 27.616H66.7473L67.0593 25.72L68.8833 19H72.0993L68.4513 29.824C68.1473 30.72 67.8513 31.536 67.5633 32.272C67.2913 33.024 66.9873 33.672 66.6513 34.216C66.3153 34.76 65.9393 35.176 65.5233 35.464C65.1233 35.768 64.6433 35.92 64.0833 35.92C63.2513 35.92 62.5873 35.784 62.0913 35.512L62.6673 33.016C62.9073 33.112 63.1473 33.16 63.3873 33.16C63.7553 33.16 64.1073 33 64.4433 32.68C64.7953 32.376 65.0593 31.816 65.2353 31L60.2193 19H63.9633L66.1713 25.744ZM78.4722 27.688C78.4722 27.368 78.3362 27.112 78.0642 26.92C77.7922 26.728 77.4562 26.552 77.0562 26.392C76.6562 26.232 76.2162 26.072 75.7362 25.912C75.2562 25.736 74.8162 25.504 74.4162 25.216C74.0162 24.912 73.6802 24.536 73.4082 24.088C73.1362 23.624 73.0002 23.032 73.0002 22.312C73.0002 21.128 73.3522 20.224 74.0562 19.6C74.7602 18.976 75.7762 18.664 77.1042 18.664C78.0162 18.664 78.8402 18.76 79.5762 18.952C80.3122 19.144 80.8882 19.36 81.3043 19.6L80.6082 21.856C80.2402 21.712 79.7762 21.56 79.2162 21.4C78.6562 21.24 78.0882 21.16 77.5122 21.16C76.5842 21.16 76.1202 21.52 76.1202 22.24C76.1202 22.528 76.2562 22.76 76.5282 22.936C76.8002 23.112 77.1362 23.28 77.5362 23.44C77.9362 23.584 78.3762 23.744 78.8562 23.92C79.3362 24.096 79.7762 24.328 80.1762 24.616C80.5762 24.888 80.9122 25.248 81.1842 25.696C81.4562 26.144 81.5923 26.72 81.5923 27.424C81.5923 28.64 81.2003 29.6 80.4163 30.304C79.6483 30.992 78.4882 31.336 76.9362 31.336C76.0882 31.336 75.2882 31.224 74.5362 31C73.8002 30.792 73.2002 30.544 72.7362 30.256L73.6002 27.928C73.9682 28.136 74.4562 28.344 75.0642 28.552C75.6722 28.744 76.2962 28.84 76.9362 28.84C77.4002 28.84 77.7682 28.752 78.0402 28.576C78.3282 28.4 78.4722 28.104 78.4722 27.688ZM77.1282 13.72H80.2962V14.44L77.6322 17.416H75.8562L77.1282 13.72ZM87.0853 26.968C87.0853 27.528 87.1573 27.936 87.3013 28.192C87.4453 28.448 87.6773 28.576 87.9973 28.576C88.1893 28.576 88.3733 28.56 88.5493 28.528C88.7413 28.496 88.9733 28.424 89.2453 28.312L89.5813 30.76C89.3253 30.888 88.9333 31.016 88.4053 31.144C87.8773 31.272 87.3333 31.336 86.7733 31.336C85.8613 31.336 85.1653 31.128 84.6853 30.712C84.2053 30.28 83.9653 29.576 83.9653 28.6V14.2H87.0853V26.968ZM91.0919 19.816C91.6999 19.48 92.4119 19.224 93.2279 19.048C94.0599 18.856 95.0279 18.76 96.1319 18.76C96.9639 18.76 97.6599 18.864 98.2199 19.072C98.7799 19.264 99.2199 19.544 99.5399 19.912C99.8759 20.28 100.108 20.72 100.236 21.232C100.38 21.744 100.452 22.32 100.452 22.96C100.452 23.664 100.428 24.376 100.38 25.096C100.332 25.8 100.3 26.496 100.284 27.184C100.284 27.872 100.308 28.544 100.356 29.2C100.404 29.84 100.524 30.448 100.716 31.024H100.164C99.2679 31.408 98.8199 31.984 98.8199 32.752C98.8199 33.168 98.9959 33.472 99.3479 33.664C99.6999 33.872 100.196 33.816 100.836 33.496L101.292 34.984C101.052 35.176 100.668 35.36 100.14 35.536C99.6279 35.728 99.0919 35.824 98.5319 35.824C97.6359 35.824 96.9479 35.624 96.4679 35.224C96.0039 34.824 95.7719 34.296 95.7719 33.64C95.7719 33 95.9799 32.448 96.3959 31.984C96.8279 31.536 97.4039 31.176 98.1239 30.904L97.6679 29.368H97.5479C97.2279 29.864 96.7799 30.296 96.2039 30.664C95.6439 31.016 94.9159 31.192 94.0199 31.192C93.4599 31.192 92.9559 31.112 92.5079 30.952C92.0599 30.776 91.6759 30.536 91.3559 30.232C91.0359 29.912 90.7879 29.544 90.6119 29.128C90.4359 28.696 90.3479 28.216 90.3479 27.688C90.3479 26.952 90.5079 26.336 90.8279 25.84C91.1639 25.328 91.6359 24.92 92.2439 24.616C92.8519 24.296 93.5799 24.08 94.4279 23.968C95.2919 23.84 96.2519 23.8 97.3079 23.848C97.4199 22.952 97.3559 22.312 97.1159 21.928C96.8919 21.528 96.3639 21.328 95.5319 21.328C94.9079 21.328 94.2679 21.4 93.6119 21.544C92.9719 21.672 92.4039 21.848 91.9079 22.072L91.0919 19.816ZM95.0519 28.624C95.6759 28.624 96.1719 28.488 96.5399 28.216C96.9079 27.928 97.1799 27.624 97.3559 27.304V25.744C96.8599 25.696 96.3799 25.688 95.9159 25.72C95.4679 25.752 95.0679 25.824 94.7159 25.936C94.3639 26.048 94.0839 26.208 93.8759 26.416C93.6679 26.624 93.5639 26.888 93.5639 27.208C93.5639 27.656 93.6919 28.008 93.9479 28.264C94.2199 28.504 94.5879 28.624 95.0519 28.624ZM111.806 30.256C111.326 30.608 110.742 30.872 110.054 31.048C109.382 31.24 108.686 31.336 107.966 31.336C107.006 31.336 106.19 31.184 105.518 30.88C104.862 30.576 104.326 30.152 103.91 29.608C103.494 29.048 103.19 28.376 102.998 27.592C102.822 26.808 102.734 25.944 102.734 25C102.734 22.968 103.19 21.408 104.102 20.32C105.014 19.216 106.342 18.664 108.086 18.664C108.966 18.664 109.67 18.736 110.198 18.88C110.742 19.024 111.23 19.208 111.662 19.432L110.918 21.976C110.55 21.8 110.182 21.664 109.814 21.568C109.462 21.472 109.054 21.424 108.59 21.424C107.726 21.424 107.07 21.712 106.622 22.288C106.174 22.848 105.95 23.752 105.95 25C105.95 25.512 106.006 25.984 106.118 26.416C106.23 26.848 106.398 27.224 106.622 27.544C106.846 27.864 107.134 28.12 107.486 28.312C107.854 28.488 108.278 28.576 108.758 28.576C109.286 28.576 109.734 28.512 110.102 28.384C110.47 28.24 110.798 28.072 111.086 27.88L111.806 30.256ZM123.135 29.968C122.655 30.352 121.999 30.68 121.167 30.952C120.351 31.208 119.479 31.336 118.551 31.336C116.615 31.336 115.199 30.776 114.303 29.656C113.407 28.52 112.959 26.968 112.959 25C112.959 22.888 113.463 21.304 114.471 20.248C115.479 19.192 116.895 18.664 118.719 18.664C119.327 18.664 119.919 18.744 120.495 18.904C121.071 19.064 121.583 19.328 122.031 19.696C122.479 20.064 122.839 20.56 123.111 21.184C123.383 21.808 123.519 22.584 123.519 23.512C123.519 23.848 123.495 24.208 123.447 24.592C123.415 24.976 123.359 25.376 123.279 25.792H116.079C116.127 26.8 116.383 27.56 116.847 28.072C117.327 28.584 118.095 28.84 119.151 28.84C119.807 28.84 120.391 28.744 120.903 28.552C121.431 28.344 121.831 28.136 122.103 27.928L123.135 29.968ZM118.671 21.16C117.855 21.16 117.247 21.408 116.847 21.904C116.463 22.384 116.231 23.032 116.151 23.848H120.615C120.679 22.984 120.543 22.32 120.207 21.856C119.887 21.392 119.375 21.16 118.671 21.16ZM136.232 26.032H135.392V31H132.272V14.2H135.392V24.112L136.112 23.776L138.848 19H142.28L139.4 23.56L138.176 24.472L139.496 25.408L142.736 31H139.16L136.232 26.032ZM147.517 26.968C147.517 27.528 147.589 27.936 147.733 28.192C147.877 28.448 148.109 28.576 148.429 28.576C148.621 28.576 148.805 28.56 148.981 28.528C149.173 28.496 149.405 28.424 149.677 28.312L150.013 30.76C149.757 30.888 149.365 31.016 148.837 31.144C148.309 31.272 147.765 31.336 147.205 31.336C146.293 31.336 145.597 31.128 145.117 30.712C144.637 30.28 144.397 29.576 144.397 28.6V14.2H147.517V26.968ZM151.524 19.696C152.164 19.408 152.924 19.184 153.804 19.024C154.684 18.848 155.604 18.76 156.564 18.76C157.396 18.76 158.092 18.864 158.652 19.072C159.212 19.264 159.652 19.544 159.972 19.912C160.308 20.28 160.54 20.72 160.668 21.232C160.812 21.744 160.884 22.32 160.884 22.96C160.884 23.664 160.86 24.376 160.812 25.096C160.764 25.8 160.732 26.496 160.716 27.184C160.716 27.872 160.74 28.544 160.788 29.2C160.836 29.84 160.956 30.448 161.148 31.024H158.604L158.1 29.368H157.98C157.66 29.864 157.212 30.296 156.636 30.664C156.076 31.016 155.348 31.192 154.452 31.192C153.892 31.192 153.388 31.112 152.94 30.952C152.492 30.776 152.108 30.536 151.788 30.232C151.468 29.912 151.22 29.544 151.044 29.128C150.868 28.696 150.78 28.216 150.78 27.688C150.78 26.952 150.94 26.336 151.26 25.84C151.596 25.328 152.068 24.92 152.676 24.616C153.3 24.296 154.036 24.08 154.884 23.968C155.748 23.84 156.708 23.8 157.764 23.848C157.876 22.952 157.812 22.312 157.572 21.928C157.332 21.528 156.796 21.328 155.964 21.328C155.34 21.328 154.676 21.392 153.972 21.52C153.284 21.648 152.716 21.816 152.268 22.024L151.524 19.696ZM155.484 28.624C156.108 28.624 156.604 28.488 156.972 28.216C157.34 27.928 157.612 27.624 157.788 27.304V25.744C157.292 25.696 156.812 25.688 156.348 25.72C155.9 25.752 155.5 25.824 155.148 25.936C154.796 26.048 154.516 26.208 154.308 26.416C154.1 26.624 153.996 26.888 153.996 27.208C153.996 27.656 154.124 28.008 154.38 28.264C154.652 28.504 155.02 28.624 155.484 28.624ZM168.71 27.688C168.71 27.368 168.574 27.112 168.302 26.92C168.03 26.728 167.694 26.552 167.294 26.392C166.894 26.232 166.454 26.072 165.974 25.912C165.494 25.736 165.054 25.504 164.654 25.216C164.254 24.912 163.918 24.536 163.646 24.088C163.374 23.624 163.238 23.032 163.238 22.312C163.238 21.128 163.59 20.224 164.294 19.6C164.998 18.976 166.014 18.664 167.342 18.664C168.254 18.664 169.078 18.76 169.814 18.952C170.55 19.144 171.126 19.36 171.542 19.6L170.846 21.856C170.478 21.712 170.014 21.56 169.454 21.4C168.894 21.24 168.326 21.16 167.75 21.16C166.822 21.16 166.358 21.52 166.358 22.24C166.358 22.528 166.494 22.76 166.766 22.936C167.038 23.112 167.374 23.28 167.774 23.44C168.174 23.584 168.614 23.744 169.094 23.92C169.574 24.096 170.014 24.328 170.414 24.616C170.814 24.888 171.15 25.248 171.422 25.696C171.694 26.144 171.83 26.72 171.83 27.424C171.83 28.64 171.438 29.6 170.654 30.304C169.886 30.992 168.726 31.336 167.174 31.336C166.326 31.336 165.526 31.224 164.774 31C164.038 30.792 163.438 30.544 162.974 30.256L163.838 27.928C164.206 28.136 164.694 28.344 165.302 28.552C165.91 28.744 166.534 28.84 167.174 28.84C167.638 28.84 168.006 28.752 168.278 28.576C168.566 28.4 168.71 28.104 168.71 27.688ZM178.475 25.744L178.907 27.616H179.051L179.363 25.72L181.187 19H184.403L180.755 29.824C180.451 30.72 180.155 31.536 179.867 32.272C179.595 33.024 179.291 33.672 178.955 34.216C178.619 34.76 178.243 35.176 177.827 35.464C177.427 35.768 176.947 35.92 176.387 35.92C175.555 35.92 174.891 35.784 174.395 35.512L174.971 33.016C175.211 33.112 175.451 33.16 175.691 33.16C176.059 33.16 176.411 33 176.747 32.68C177.099 32.376 177.363 31.816 177.539 31L172.523 19H176.267L178.475 25.744Z" fill="#1F1F1F"/>
<path fill-rule="evenodd" clip-rule="evenodd" d="M4.94178 20.9784C7.2265 18.5197 10.3131 19.1877 13.2528 20.7868C16.3601 22.477 19.0938 24.8048 18.3436 28.2683C17.6112 31.6493 14.3287 33.8983 10.8711 33.9672C8.12114 34.0219 5.09046 31.7775 3.95006 29.2793C2.78985 26.7377 3.03424 23.0312 4.94178 20.9784Z" fill="url(#paint0_radial_3659382)"/>
<path fill-rule="evenodd" clip-rule="evenodd" d="M22.8596 14.0129C24.7945 13.8371 25.8524 15.4798 26.4846 17.4979C27.1528 19.631 27.4129 21.9039 25.7417 23.2133C24.1103 24.4914 21.8311 24.1391 20.3272 22.6842C19.1312 21.527 18.7118 19.1656 19.1989 17.4978C19.6944 15.8011 21.2442 14.1597 22.8596 14.0129Z" fill="url(#paint1_radial_3659382)"/>
<defs>
<radialGradient id="paint0_radial_3659382" cx="0" cy="0" r="1" gradientUnits="userSpaceOnUse" gradientTransform="translate(6 22.5) rotate(45.5878) scale(13.824 12.1995)">
<stop stop-color="#3678E3"/>
<stop offset="1" stop-color="#0541A4"/>
</radialGradient>
<radialGradient id="paint1_radial_3659382" cx="0" cy="0" r="1" gradientUnits="userSpaceOnUse" gradientTransform="translate(20 16.5) rotate(42.7094) scale(8.8459 7.07829)">
<stop stop-color="#FFAF51"/>
<stop offset="1" stop-color="#F18200"/>
</radialGradient>
</defs>
</svg>
