<svg width="21" height="21" viewBox="0 0 21 21" fill="none" xmlns="http://www.w3.org/2000/svg">
<path d="M9.00374 3.37744L1.59249 15.7499C1.43968 16.0146 1.35883 16.3146 1.35798 16.6201C1.35712 16.9257 1.43629 17.2262 1.58761 17.4916C1.73893 17.7571 1.95712 17.9783 2.22048 18.1333C2.48384 18.2883 2.78319 18.3716 3.08874 18.3749H17.9112C18.2168 18.3716 18.5161 18.2883 18.7795 18.1333C19.0429 17.9783 19.261 17.7571 19.4124 17.4916C19.5637 17.2262 19.6429 16.9257 19.642 16.6201C19.6411 16.3146 19.5603 16.0146 19.4075 15.7499L11.9962 3.37744C11.8403 3.12028 11.6206 2.90766 11.3585 2.76011C11.0964 2.61255 10.8008 2.53503 10.5 2.53503C10.1992 2.53503 9.90353 2.61255 9.64144 2.76011C9.37936 2.90766 9.15972 3.12028 9.00374 3.37744V3.37744Z" stroke="#E12D43" stroke-width="1.5" stroke-linecap="round" stroke-linejoin="round"/>
<path d="M10.5 7.875V11.375" stroke="#E12D43" stroke-width="1.5" stroke-linecap="round" stroke-linejoin="round"/>
<path d="M10.5 14.875H10.5088" stroke="#E12D43" stroke-width="1.5" stroke-linecap="round" stroke-linejoin="round"/>
</svg>
