<svg width="16" height="16" viewBox="0 0 16 16" fill="none" xmlns="http://www.w3.org/2000/svg">
<path d="M10.6667 2.66666H12.0001C12.3537 2.66666 12.6928 2.80713 12.9429 3.05718C13.1929 3.30723 13.3334 3.64637 13.3334 3.99999V13.3333C13.3334 13.6869 13.1929 14.0261 12.9429 14.2761C12.6928 14.5262 12.3537 14.6667 12.0001 14.6667H4.00008C3.64646 14.6667 3.30732 14.5262 3.05727 14.2761C2.80722 14.0261 2.66675 13.6869 2.66675 13.3333V3.99999C2.66675 3.64637 2.80722 3.30723 3.05727 3.05718C3.30732 2.80713 3.64646 2.66666 4.00008 2.66666H5.33341" stroke="#1F1F1F" stroke-width="1.5" stroke-linecap="round" stroke-linejoin="round"/>
<path d="M9.99992 1.33334H5.99992C5.63173 1.33334 5.33325 1.63182 5.33325 2.00001V3.33334C5.33325 3.70153 5.63173 4.00001 5.99992 4.00001H9.99992C10.3681 4.00001 10.6666 3.70153 10.6666 3.33334V2.00001C10.6666 1.63182 10.3681 1.33334 9.99992 1.33334Z" stroke="#1F1F1F" stroke-width="1.5" stroke-linecap="round" stroke-linejoin="round"/>
<g clip-path="url(#clip0_2485_32)">
<path d="M7.10474 7.66306H10.7158" stroke="#1F1F1F" stroke-linecap="round" stroke-linejoin="round"/>
<path d="M7.10474 10.1894H10.7158" stroke="#1F1F1F" stroke-linecap="round" stroke-linejoin="round"/>
<path d="M5.41699 7.66306H5.42116" stroke="#1F1F1F" stroke-width="1.5" stroke-linecap="round" stroke-linejoin="round"/>
<path d="M5.41699 10.1894H5.42116" stroke="#1F1F1F" stroke-width="1.5" stroke-linecap="round" stroke-linejoin="round"/>
</g>
<defs>
<clipPath id="clip0_2485_32">
<rect width="8.42105" height="6.73684" fill="white" transform="translate(4.21045 5.89474)"/>
</clipPath>
</defs>
</svg>
