<svg width="19" height="19" viewBox="0 0 19 19" fill="none" xmlns="http://www.w3.org/2000/svg">
<path d="M8.70833 3.16666H3.16666C2.74674 3.16666 2.34401 3.33347 2.04708 3.6304C1.75014 3.92734 1.58333 4.33006 1.58333 4.74999V15.8333C1.58333 16.2533 1.75014 16.656 2.04708 16.9529C2.34401 17.2498 2.74674 17.4167 3.16666 17.4167H14.25C14.6699 17.4167 15.0726 17.2498 15.3696 16.9529C15.6665 16.656 15.8333 16.2533 15.8333 15.8333V10.2917" stroke="#1F1F1F" stroke-width="1.5" stroke-linecap="round" stroke-linejoin="round"/>
<path d="M14.6458 1.97915C14.9608 1.66421 15.3879 1.48727 15.8333 1.48727C16.2787 1.48727 16.7059 1.66421 17.0208 1.97915C17.3358 2.2941 17.5127 2.72125 17.5127 3.16665C17.5127 3.61205 17.3358 4.03921 17.0208 4.35415L9.49999 11.875L6.33333 12.6667L7.12499 9.49999L14.6458 1.97915Z" stroke="#1F1F1F" stroke-width="1.5" stroke-linecap="round" stroke-linejoin="round"/>
</svg>
