<svg width="19" height="19" viewBox="0 0 19 19" fill="none" xmlns="http://www.w3.org/2000/svg">
<path d="M11.1783 11.1783C10.9609 11.4117 10.6987 11.5988 10.4074 11.7286C10.116 11.8585 9.80155 11.9283 9.48265 11.9339C9.16376 11.9395 8.847 11.8808 8.55127 11.7614C8.25554 11.6419 7.9869 11.4642 7.76138 11.2386C7.53585 11.0131 7.35806 10.7445 7.23861 10.4487C7.11916 10.153 7.0605 9.83625 7.06613 9.51736C7.07175 9.19846 7.14155 8.88397 7.27136 8.59264C7.40117 8.30131 7.58832 8.03911 7.82167 7.82168M14.2025 14.2025C12.8492 15.2341 11.2014 15.8055 9.5 15.8333C3.95833 15.8333 0.791666 9.50001 0.791666 9.50001C1.77641 7.66484 3.14223 6.06149 4.7975 4.79751L14.2025 14.2025ZM7.8375 3.35668C8.38243 3.22912 8.94034 3.16536 9.5 3.16668C15.0417 3.16668 18.2083 9.50001 18.2083 9.50001C17.7278 10.399 17.1547 11.2454 16.4983 12.0254L7.8375 3.35668Z" stroke="current" stroke-width="1.5" stroke-linecap="round" stroke-linejoin="round"/>
<path d="M0.791666 0.791656L18.2083 18.2083" stroke="current" stroke-width="1.5" stroke-linecap="round" stroke-linejoin="round"/>
</svg>
